<svg width="38" height="38" viewBox="0 0 38 38" fill="none" xmlns="http://www.w3.org/2000/svg">
<path d="M3.8 9.69844C3.8 7.6025 5.50406 5.89844 7.6 5.89844H30.4C32.4959 5.89844 34.2 7.6025 34.2 9.69844V25.5H31V17.2391V9H19H7V17.2391V25.5H3.8V9.69844ZM0 28.5C0 27.8706 0.870625 27.5 1.5 27.5H19H37C37.6294 27.5 38 27.8706 38 28.5C38 31.0175 35.9575 32.4984 33.44 32.4984H4.56C2.0425 32.4984 0 31.0175 0 28.5ZM16.6844 16.4078L14.8438 18.2484L16.6844 20.0891C17.2425 20.6472 17.2425 21.5497 16.6844 22.1019C16.1262 22.6541 15.2238 22.66 14.6716 22.1019L11.8216 19.2519C11.2634 18.6937 11.2634 17.7912 11.8216 17.2391L14.6716 14.3891C15.2297 13.8309 16.1322 13.8309 16.6844 14.3891C17.2366 14.9472 17.2425 15.8497 16.6844 16.4019V16.4078ZM23.3344 14.3891L26.1844 17.2391C26.7425 17.7972 26.7425 18.6997 26.1844 19.2519L23.3344 22.1019C22.7763 22.66 21.8737 22.66 21.3216 22.1019C20.7694 21.5438 20.7634 20.6413 21.3216 20.0891L23.1622 18.2484L21.3216 16.4078C20.7634 15.8497 20.7634 14.9472 21.3216 14.395C21.8797 13.8428 22.7822 13.8369 23.3344 14.395V14.3891Z" fill="currentColor"/>
</svg>
