<svg width="38" height="38" viewBox="0 0 38 38" fill="none" xmlns="http://www.w3.org/2000/svg">
<path fill-rule="evenodd" clip-rule="evenodd" d="M18.5534 3.92041C10.4727 3.92041 3.92065 10.6362 3.92065 18.9263C3.92065 25.5571 8.11451 31.1753 13.9284 33.1613C14.66 33.2985 14.9279 32.8347 14.9279 32.4362C14.9279 32.0769 14.9148 31.1362 14.9083 29.8818C10.8385 30.7899 9.97626 27.8697 9.97626 27.8697C9.30995 26.1385 8.34968 25.6747 8.34968 25.6747C7.02358 24.7405 8.44766 24.7601 8.44766 24.7601C9.91747 24.8646 10.6883 26.3084 10.6883 26.3084C11.9948 28.6014 14.1113 27.9416 14.9475 27.5562C15.0781 26.5893 15.457 25.923 15.8751 25.5506C12.6284 25.1717 9.21196 23.8847 9.21196 18.1358C9.21196 16.4961 9.78029 15.1569 10.7144 14.1116C10.5642 13.7327 10.0612 12.204 10.8581 10.1397C10.8581 10.1397 12.0863 9.73462 14.8822 11.6749C16.0515 11.3417 17.2992 11.1784 18.5469 11.1718C19.788 11.1784 21.0423 11.3417 22.2116 11.6749C25.0075 9.73462 26.2291 10.1397 26.2291 10.1397C27.026 12.204 26.523 13.7327 26.3728 14.1116C27.3069 15.1634 27.8753 16.5026 27.8753 18.1358C27.8753 23.8978 24.4522 25.1652 21.1925 25.5375C21.7151 26.0014 22.1855 26.9159 22.1855 28.314C22.1855 30.3195 22.1659 31.9397 22.1659 32.4297C22.1659 32.8282 22.4272 33.2985 23.1719 33.1483C28.9988 31.1688 33.1862 25.5506 33.1862 18.9263C33.1862 10.6362 26.6341 3.92041 18.5534 3.92041Z" fill="currentColor"/>
</svg>
