<svg width="38" height="38" viewBox="0 0 38 38" fill="none" xmlns="http://www.w3.org/2000/svg">
<path d="M15.2325 30L6.52035 21.3427C5.69629 20.5383 5.04719 19.5715 4.61392 18.5031C4.18066 17.4347 3.97261 16.2879 4.00289 15.1349C4.03317 13.9819 4.30111 12.8477 4.78984 11.8036C5.27858 10.7596 5.97752 9.8284 6.84266 9.06865C7.70779 8.3089 8.72037 7.73706 9.81665 7.38915C10.9129 7.04124 12.0691 6.92479 13.2125 7.04714C14.3558 7.16948 15.4615 7.52797 16.46 8.10003C17.4584 8.67208 18.3279 9.44532 19.0138 10.371C20.2439 8.72992 22.0334 7.60064 24.0407 7.19874C26.048 6.79683 28.1325 7.15044 29.8964 8.19209C31.6604 9.23373 32.9801 10.8905 33.6039 12.846C34.2276 14.8016 34.1116 16.9192 33.2781 18.7944" stroke="currentColor" stroke-width="3.2" stroke-linecap="round" stroke-linejoin="round"/>
<path d="M21.5432 25.4136L21.3305 25.4416H20.8337C20.6584 25.4416 20.4866 25.3919 20.3383 25.2982C20.1749 25.1949 20.0478 25.043 19.975 24.8639L19.926 24.7434C19.8433 24.5402 19.8121 24.3197 19.8351 24.1015L19.8501 23.9591C19.8801 23.6746 19.9739 23.4005 20.1244 23.1572L20.213 23.014C20.4442 22.6402 20.7738 22.3429 21.134 22.091L21.1442 22.0838C21.3356 21.9487 21.4216 21.8406 21.6174 21.7129C21.9302 21.5088 22.1285 21.4299 22.4783 21.3097C22.8057 21.1973 22.9993 21.1666 23.3392 21.1082C23.7097 21.0445 23.9207 21.026 24.2957 21.0074C24.3262 21.0059 24.3582 21.0047 24.3912 21.0037C24.9011 20.9882 25.4124 20.9795 25.9218 21.0074C26.4985 21.039 27.0805 21.0802 27.6435 21.209C27.8551 21.2573 28.1293 21.3594 28.3108 21.4315C28.4406 21.4831 28.5662 21.5439 28.6898 21.609L28.8741 21.7061C29.1369 21.8445 29.3824 22.0134 29.6056 22.2094C29.7639 22.3484 29.9104 22.5005 30.0434 22.664L30.1461 22.7902C30.326 23.0113 30.472 23.258 30.5794 23.522L30.6553 23.7086C30.6879 23.7887 30.7112 23.8723 30.7247 23.9578L30.742 24.0672C30.7791 24.3014 30.719 24.5407 30.5755 24.7295C30.4724 24.8653 30.3317 24.9679 30.1708 25.0244L30.0513 25.0663C29.9138 25.1146 29.7691 25.1393 29.6233 25.1393H29.4843C29.2785 25.1393 29.0739 25.1092 28.8768 25.0499L28.5044 24.9378L28.4418 24.9114C28.3625 24.8779 28.297 24.9808 28.3609 25.0385L28.4055 25.0788C28.5977 25.2524 28.761 25.4556 28.8892 25.6807L28.9224 25.739C28.9625 25.8094 28.9971 25.8828 29.0259 25.9586L29.033 25.9775C29.1254 26.2207 29.1526 26.4838 29.1119 26.7408L29.0838 26.9186C29.0802 26.9416 29.0732 26.964 29.0632 26.9851C29.0158 27.0851 29.0417 27.2046 29.1264 27.276L29.4609 27.558L29.7479 27.8603L30.0348 28.1627L30.3218 28.465L30.4553 28.6338C30.6531 28.8839 30.637 29.2414 30.4174 29.4728C30.3427 29.5515 30.3066 29.6021 30.2261 29.6743C30.0603 29.8231 29.9656 29.9827 29.7479 29.9767C29.6298 29.9734 29.5444 29.9639 29.4609 29.8759C29.4018 29.8137 29.3652 29.7623 29.3652 29.6743C29.3652 29.5863 29.4018 29.535 29.4609 29.4728C29.52 29.4105 29.5695 29.3844 29.6522 29.372C29.7691 29.3544 29.8211 29.4695 29.9392 29.4728C30.1569 29.4788 30.3675 29.3938 30.4174 29.1704C30.4723 28.9251 30.2096 28.8385 30.0348 28.6665C29.838 28.4728 29.7131 28.3631 29.4609 28.2634C29.2306 28.1724 29.0205 28.402 29.0592 28.6466L29.0783 28.7673L29.0942 28.8508C29.147 29.129 29.1513 29.4142 29.1071 29.6939C29.0879 29.815 29.0597 29.9346 29.0227 30.0515L28.9089 30.4115C28.8943 30.4573 28.874 30.5011 28.8483 30.5417C28.6667 30.8288 28.781 31.2101 29.0905 31.3499L29.174 31.3876L29.4442 31.5015C29.5827 31.5598 29.716 31.6294 29.843 31.7097L30.0849 31.8626C30.1152 31.8818 30.143 31.9046 30.1676 31.9306L30.3234 32.0947C30.4233 32.2 30.4064 32.3695 30.2876 32.4529C30.2476 32.481 30.1999 32.4961 30.151 32.4961H29.7621C29.6889 32.4961 29.6159 32.4906 29.5436 32.4798L27.7079 32.2035C27.665 32.197 27.6218 32.1938 27.5785 32.1938C27.3734 32.1938 27.1749 32.1213 27.0181 31.9891L26.7827 31.7907L26.2087 31.2868L25.7305 30.8837L25.6314 30.8141C25.5135 30.7312 25.3629 30.7104 25.2269 30.7582C25.1803 30.7745 25.1368 30.7985 25.0981 30.8291L24.8887 30.9946C24.8123 31.0549 24.7403 31.1206 24.6733 31.1912L24.6333 31.2334C24.5359 31.336 24.431 31.4313 24.3196 31.5183L23.655 32.0374C23.674 32.0259 23.6929 32.0142 23.7117 32.0025L23.6519 32.0398L23.655 32.0374C23.3604 32.2161 23.0492 32.3662 22.7258 32.4855L21.4886 32.9417C21.384 32.9803 21.2734 33 21.162 33H20.8101C20.7759 33 20.7433 32.986 20.7197 32.9612C20.6843 32.9238 20.6755 32.8685 20.6975 32.822L20.7457 32.7206C20.7529 32.7053 20.7615 32.6908 20.7713 32.677L21.0435 32.2946L21.0999 32.2351C21.3165 32.0069 21.5615 31.8075 21.8289 31.6418C22.0269 31.5029 22.0771 31.2271 21.9369 31.0301C21.9153 30.9998 21.8977 30.9668 21.8845 30.9321L21.7131 30.4805L21.5218 29.7751L21.4261 29.0697V28.465C21.4261 28.3473 21.2874 28.2845 21.1989 28.3621L20.8522 28.6665C20.5976 28.9348 20.3653 29.2235 20.1577 29.5297L20.0001 29.7621C20.106 29.606 20.3313 29.5931 20.4543 29.7362L20.524 29.8173C20.5972 29.9026 20.7282 29.9058 20.8056 29.8242C20.8357 29.7925 20.8759 29.7718 20.9197 29.7706C21.0138 29.768 21.1793 29.7784 21.2348 29.8759C21.3141 30.015 21.2712 30.1955 21.1392 30.279C21.0431 30.3397 20.9636 30.2924 20.8522 30.279C20.5696 30.2451 20.4033 30.1659 20.1827 29.9767C20.1007 29.9064 20.066 29.8538 19.9913 29.7751C19.9496 29.7409 19.9281 29.7183 19.8957 29.6743C19.8245 29.5779 19.9321 29.2859 19.9864 29.1791C19.9879 29.1762 19.9895 29.1733 19.9913 29.1704C20.126 28.9622 20.2106 28.8507 20.3739 28.6665C20.4461 28.5852 20.4905 28.5437 20.5652 28.465C20.7147 28.3076 20.7861 28.2051 20.9479 28.0619C21.013 28.0042 21.0942 27.9428 21.1749 27.8857C21.3739 27.7449 21.4597 27.4971 21.4261 27.2557C21.3937 27.022 21.4023 26.8858 21.4261 26.651C21.4464 26.4514 21.4584 26.3363 21.5218 26.1471C21.5774 25.9811 21.618 25.8887 21.7131 25.744C21.8023 25.6082 21.7042 25.3924 21.5432 25.4136Z" fill="currentColor"/>
<path d="M19.9913 29.7751C20.0418 29.7007 20.0998 29.6151 20.1577 29.5297C20.3653 29.2235 20.5976 28.9348 20.8522 28.6665V28.6665L21.1989 28.3621C21.2874 28.2845 21.4261 28.3473 21.4261 28.465V28.465V29.0697L21.5218 29.7751L21.7131 30.4805L21.8845 30.9321C21.8977 30.9668 21.9153 30.9998 21.9369 31.0301V31.0301C22.0771 31.2271 22.0269 31.5029 21.8289 31.6418V31.6418V31.6418C21.5615 31.8075 21.3165 32.0069 21.0999 32.2351L21.0435 32.2946L20.7713 32.677C20.7615 32.6908 20.7529 32.7053 20.7457 32.7206L20.6975 32.822C20.6755 32.8685 20.6843 32.9238 20.7197 32.9612V32.9612C20.7433 32.986 20.7759 33 20.8101 33H21.162C21.2734 33 21.384 32.9803 21.4886 32.9417L22.7258 32.4855C23.07 32.3585 23.4004 32.1967 23.7117 32.0025V32.0025L23.6519 32.0398L24.3196 31.5183C24.431 31.4313 24.5359 31.336 24.6333 31.2334L24.6733 31.1912C24.7403 31.1206 24.8123 31.0549 24.8887 30.9946L25.0981 30.8291C25.1368 30.7985 25.1803 30.7745 25.2269 30.7582V30.7582C25.3629 30.7104 25.5135 30.7312 25.6314 30.8141L25.7305 30.8837L26.2087 31.2868L26.7827 31.7907L27.0181 31.9891C27.1749 32.1213 27.3734 32.1938 27.5785 32.1938V32.1938C27.6218 32.1938 27.665 32.197 27.7079 32.2035L29.5436 32.4798C29.6159 32.4906 29.6889 32.4961 29.7621 32.4961H30.151C30.1999 32.4961 30.2476 32.481 30.2876 32.4529V32.4529C30.4064 32.3695 30.4233 32.2 30.3234 32.0947L30.1676 31.9306C30.143 31.9046 30.1152 31.8818 30.0849 31.8626L29.843 31.7097C29.716 31.6294 29.5827 31.5598 29.4442 31.5015L29.174 31.3876L29.0905 31.3499C28.781 31.2101 28.6667 30.8288 28.8483 30.5417V30.5417C28.874 30.5011 28.8943 30.4573 28.9089 30.4115L29.0227 30.0516C29.0597 29.9346 29.0879 29.815 29.1071 29.6939V29.6939C29.1513 29.4142 29.147 29.129 29.0942 28.8508L29.0783 28.7673L29.0592 28.6466C29.0205 28.402 29.2306 28.1724 29.4609 28.2634V28.2634C29.7131 28.3631 29.838 28.4728 30.0348 28.6665C30.2096 28.8385 30.4723 28.9251 30.4174 29.1704C30.3675 29.3938 30.1569 29.4788 29.9392 29.4728C29.8211 29.4695 29.7691 29.3544 29.6522 29.372C29.5695 29.3844 29.52 29.4105 29.4609 29.4728C29.4018 29.535 29.3652 29.5863 29.3652 29.6743C29.3652 29.7623 29.4018 29.8137 29.4609 29.8759C29.5444 29.9639 29.6298 29.9734 29.7479 29.9767C29.9656 29.9827 30.0603 29.8231 30.2261 29.6743C30.3066 29.6021 30.3427 29.5515 30.4174 29.4728V29.4728C30.637 29.2414 30.6531 28.8839 30.4553 28.6338L30.3218 28.465L30.0348 28.1627L29.7479 27.8603L29.4609 27.558L29.1264 27.276C29.0417 27.2046 29.0158 27.0851 29.0632 26.9851V26.9851C29.0732 26.964 29.0802 26.9416 29.0838 26.9186L29.1119 26.7408C29.1526 26.4838 29.1254 26.2207 29.033 25.9775L29.0259 25.9586C28.9971 25.8828 28.9625 25.8094 28.9224 25.739L28.8892 25.6807C28.761 25.4556 28.5977 25.2524 28.4055 25.0788L28.3609 25.0385V25.0385C28.297 24.9808 28.3625 24.8779 28.4418 24.9114L28.5044 24.9378L28.8768 25.0499C29.0739 25.1092 29.2785 25.1393 29.4843 25.1393H29.6233C29.7691 25.1393 29.9138 25.1146 30.0513 25.0663L30.1708 25.0244C30.3317 24.9679 30.4724 24.8653 30.5755 24.7295V24.7295C30.719 24.5407 30.7791 24.3014 30.742 24.0672L30.7247 23.9578C30.7112 23.8723 30.6879 23.7887 30.6553 23.7086L30.5794 23.522C30.472 23.258 30.326 23.0113 30.1461 22.7902L30.0434 22.664C29.9104 22.5005 29.7639 22.3484 29.6056 22.2094V22.2094C29.3824 22.0134 29.1369 21.8445 28.8741 21.7061L28.6898 21.609C28.5662 21.5439 28.4406 21.4831 28.3108 21.4315C28.1293 21.3594 27.8551 21.2573 27.6435 21.209V21.209C27.0805 21.0802 26.4985 21.039 25.9218 21.0074V21.0074V21.0074C25.4124 20.9795 24.9011 20.9882 24.3912 21.0037C24.3582 21.0047 24.3262 21.0059 24.2957 21.0074C23.9207 21.026 23.7097 21.0445 23.3392 21.1082C22.9993 21.1666 22.8057 21.1973 22.4783 21.3097C22.1285 21.4299 21.9302 21.5088 21.6174 21.7129C21.4216 21.8406 21.3356 21.9487 21.1442 22.0838C21.1408 22.0862 21.1374 22.0886 21.134 22.091C20.7738 22.3429 20.4442 22.6402 20.213 23.014L20.1244 23.1572C19.9739 23.4005 19.8801 23.6746 19.8501 23.9591L19.8351 24.1015C19.8121 24.3197 19.8433 24.5402 19.926 24.7434L19.975 24.8639C20.0478 25.043 20.1749 25.1949 20.3383 25.2982V25.2982C20.4866 25.3919 20.6584 25.4416 20.8337 25.4416H21.3305L21.5432 25.4136C21.7042 25.3924 21.8023 25.6082 21.7131 25.744V25.744C21.618 25.8887 21.5774 25.9811 21.5218 26.1471C21.4584 26.3363 21.4464 26.4514 21.4261 26.651C21.4023 26.8858 21.3937 27.022 21.4261 27.2557V27.2557C21.4597 27.4971 21.3739 27.7449 21.1749 27.8857C21.0942 27.9428 21.013 28.0042 20.9479 28.0619C20.7861 28.2051 20.7147 28.3076 20.5652 28.465C20.4905 28.5437 20.4461 28.5852 20.3739 28.6665C20.2106 28.8507 20.126 28.9622 19.9913 29.1704M19.9913 29.7751C20.066 29.8538 20.1007 29.9064 20.1827 29.9767C20.4033 30.1659 20.5696 30.2451 20.8522 30.279C20.9636 30.2924 21.0431 30.3397 21.1392 30.279C21.2712 30.1955 21.3141 30.015 21.2348 29.8759C21.1793 29.7784 21.0138 29.768 20.9197 29.7706C20.8759 29.7718 20.8357 29.7925 20.8056 29.8242V29.8242C20.7282 29.9058 20.5972 29.9026 20.524 29.8173L20.4543 29.7362C20.3313 29.5931 20.106 29.606 20.0001 29.7621C19.9971 29.7665 19.9942 29.7709 19.9913 29.7751ZM19.9913 29.7751C19.9913 29.539 19.9913 29.4066 19.9913 29.1704M19.9913 29.7751C19.9496 29.7409 19.9281 29.7183 19.8957 29.6743V29.6743C19.8245 29.5779 19.9321 29.2859 19.9864 29.1791C19.9879 29.1762 19.9895 29.1733 19.9913 29.1704" stroke="currentColor" stroke-width="0.7"/>
</svg>
