<svg width="38" height="38" viewBox="0 0 38 38" fill="none" xmlns="http://www.w3.org/2000/svg">
<path d="M6.55556 17.25H3L19 5L35 17.25H31.4444M6.55556 17.25V28.3333C6.55556 29.1732 6.93016 29.9786 7.59695 30.5725C8.26375 31.1664 9.16812 31.5 10.1111 31.5H27.8889C28.8319 31.5 29.7362 31.1664 30.403 30.5725C31.0698 29.9786 31.4444 29.1732 31.4444 28.3333V17.25" stroke="currentColor" stroke-width="3" stroke-linecap="round" stroke-linejoin="round"/>
<path d="M13.6667 31.5002V22.0002C13.6667 21.1603 14.0414 20.3549 14.7081 19.761C15.3749 19.1671 16.2793 18.8335 17.2223 18.8335H20.7779C21.7209 18.8335 22.6252 19.1671 23.292 19.761C23.9588 20.3549 24.3334 21.1603 24.3334 22.0002V31.5002" stroke="currentColor" stroke-width="3" stroke-linecap="round" stroke-linejoin="round"/>
</svg>
