<svg width="38" height="38" viewBox="0 0 38 38" fill="none" xmlns="http://www.w3.org/2000/svg">
<path d="M18.5865 14.2095C17.426 14.2095 16.3131 14.6705 15.4925 15.4911C14.6719 16.3116 14.211 17.4245 14.211 18.585C14.211 19.7455 14.6719 20.8584 15.4925 21.6789C16.3131 22.4995 17.426 22.9605 18.5865 22.9605C19.7469 22.9605 20.8598 22.4995 21.6804 21.6789C22.501 20.8584 22.962 19.7455 22.962 18.585C22.962 17.4245 22.501 16.3116 21.6804 15.4911C20.8598 14.6705 19.7469 14.2095 18.5865 14.2095ZM18.5865 11.2925C20.5206 11.2925 22.3754 12.0608 23.743 13.4284C25.1106 14.796 25.879 16.6509 25.879 18.585C25.879 20.5191 25.1106 22.374 23.743 23.7416C22.3754 25.1092 20.5206 25.8775 18.5865 25.8775C16.6524 25.8775 14.7975 25.1092 13.4299 23.7416C12.0623 22.374 11.294 20.5191 11.294 18.585C11.294 16.6509 12.0623 14.796 13.4299 13.4284C14.7975 12.0608 16.6524 11.2925 18.5865 11.2925ZM28.0667 10.9279C28.0667 11.4114 27.8746 11.8751 27.5327 12.217C27.1908 12.5589 26.7271 12.751 26.2436 12.751C25.7601 12.751 25.2963 12.5589 24.9544 12.217C24.6125 11.8751 24.4205 11.4114 24.4205 10.9279C24.4205 10.4444 24.6125 9.98063 24.9544 9.63873C25.2963 9.29683 25.7601 9.10475 26.2436 9.10475C26.7271 9.10475 27.1908 9.29683 27.5327 9.63873C27.8746 9.98063 28.0667 10.4444 28.0667 10.9279ZM18.5865 6.917C14.9781 6.917 14.3889 6.92721 12.7102 7.00159C11.5667 7.05556 10.7995 7.2087 10.0878 7.48581C9.49247 7.70513 8.95412 8.05556 8.5126 8.51114C8.05649 8.95251 7.70556 9.49087 7.48581 10.0863C7.2087 10.801 7.05556 11.5667 7.00305 12.7087C6.92721 14.3189 6.917 14.8819 6.917 18.585C6.917 22.1948 6.92721 22.7826 7.00159 24.4613C7.05556 25.6033 7.2087 26.3719 7.48436 27.0822C7.7323 27.7167 8.024 28.1732 8.50822 28.6574C8.99974 29.1475 9.45625 29.4406 10.0834 29.6827C10.8039 29.9613 11.5711 30.1159 12.7087 30.1684C14.3189 30.2442 14.8819 30.253 18.585 30.253C22.1948 30.253 22.7826 30.2428 24.4613 30.1684C25.6018 30.1144 26.369 29.9613 27.0822 29.6856C27.6775 29.4663 28.2159 29.1159 28.6574 28.6603C29.1489 28.1703 29.4421 27.7137 29.6842 27.0851C29.9613 26.3676 30.1159 25.6004 30.1684 24.4598C30.2442 22.8511 30.253 22.2867 30.253 18.585C30.253 14.9767 30.2428 14.3874 30.1684 12.7087C30.1144 11.5682 29.9598 10.7981 29.6842 10.0863C29.4649 9.49101 29.1144 8.95266 28.6589 8.51114C28.2175 8.05503 27.6791 7.7041 27.0837 7.48436C26.369 7.20724 25.6018 7.0541 24.4613 7.00159C22.8526 6.92575 22.2896 6.917 18.585 6.917M18.585 4C22.5477 4 23.0422 4.01458 24.5984 4.08751C26.1502 4.16043 27.2091 4.404 28.1382 4.76571C29.1008 5.13617 29.9117 5.6379 30.7226 6.44736C31.4646 7.17622 32.0385 8.05824 32.4043 9.03183C32.7645 9.96089 33.0096 11.0198 33.0825 12.5731C33.151 14.1278 33.17 14.6223 33.17 18.585C33.17 22.5477 33.1554 23.0422 33.0825 24.5969C33.0096 26.1517 32.7645 27.2077 32.4043 28.1382C32.0385 29.1118 31.4646 29.9938 30.7226 30.7226C29.9938 31.4646 29.1118 32.0385 28.1382 32.4043C27.2091 32.7645 26.1502 33.0096 24.5984 33.0825C23.0422 33.151 22.5477 33.17 18.585 33.17C14.6223 33.17 14.1278 33.1554 12.5716 33.0825C11.0198 33.0096 9.96235 32.7645 9.03183 32.4043C8.05824 32.0385 7.17622 31.4646 6.44736 30.7226C5.70543 29.9938 5.13153 29.1118 4.76571 28.1382C4.404 27.2091 4.16043 26.1502 4.08751 24.5969C4.0175 23.0422 4 22.5477 4 18.585C4 14.6223 4.01458 14.1278 4.08751 12.5731C4.16043 11.0183 4.404 9.96235 4.76571 9.03183C5.13153 8.05824 5.70543 7.17622 6.44736 6.44736C7.17622 5.70543 8.05824 5.13153 9.03183 4.76571C9.96089 4.404 11.0183 4.16043 12.5716 4.08751C14.1293 4.01896 14.6237 4 18.5865 4" fill="currentColor"/>
</svg>
