<svg width="38" height="38" viewBox="0 0 38 38" fill="none" xmlns="http://www.w3.org/2000/svg">
<path d="M18.5072 10.9194C14.3898 10.9194 10.9783 14.2722 10.9783 18.4483C10.9783 22.6245 14.331 25.9773 18.5072 25.9773C22.6834 25.9773 26.0361 22.5657 26.0361 18.4483C26.0361 14.331 22.6246 10.9194 18.5072 10.9194ZM18.5072 23.2716C15.8603 23.2716 13.684 21.0952 13.684 18.4483C13.684 15.8015 15.8603 13.6251 18.5072 13.6251C21.1541 13.6251 23.3304 15.8015 23.3304 18.4483C23.3304 21.0952 21.1541 23.2716 18.5072 23.2716Z" fill="currentColor"/>
<path d="M26.3295 12.4486C27.2716 12.4486 28.0353 11.6849 28.0353 10.7429C28.0353 9.80081 27.2716 9.03711 26.3295 9.03711C25.3875 9.03711 24.6238 9.80081 24.6238 10.7429C24.6238 11.6849 25.3875 12.4486 26.3295 12.4486Z" fill="currentColor"/>
<path d="M30.7411 6.33189C29.2118 4.74384 27.0356 3.92041 24.5653 3.92041H12.4491C7.33202 3.92041 3.92065 7.33178 3.92065 12.4488V24.5063C3.92065 27.0354 4.74409 29.2116 6.39096 30.7996C7.97901 32.3289 10.0964 33.0935 12.5079 33.0935H24.5065C27.0356 33.0935 29.153 32.2701 30.6823 30.7996C32.2703 29.2704 33.0937 27.0942 33.0937 24.5651V12.4488C33.0937 9.97853 32.2703 7.86113 30.7411 6.33189ZM30.5058 24.5651C30.5058 26.3884 29.8588 27.8588 28.8001 28.8587C27.7414 29.8586 26.271 30.3879 24.5065 30.3879H12.5079C10.7434 30.3879 9.27297 29.8586 8.21427 28.8587C7.15557 27.8 6.62622 26.3296 6.62622 24.5063V12.4488C6.62622 10.6843 7.15557 9.21391 8.21427 8.15521C9.21416 7.15533 10.7434 6.62598 12.5079 6.62598H24.6241C26.3886 6.62598 27.859 7.15533 28.9177 8.21403C29.9176 9.27273 30.5058 10.7431 30.5058 12.4488V24.5651Z" fill="currentColor"/>
</svg>
