<svg width="38" height="38" viewBox="0 0 38 38" fill="none" xmlns="http://www.w3.org/2000/svg">
<path d="M16.7677 21.2325C17.4169 21.85 17.4169 22.8633 16.7677 23.4808C16.1502 24.0983 15.1369 24.0983 14.5194 23.4808C13.0364 21.9956 12.2035 19.9826 12.2035 17.8837C12.2035 15.7849 13.0364 13.7719 14.5194 12.2867L20.1244 6.68165C21.6096 5.19867 23.6227 4.36572 25.7215 4.36572C27.8203 4.36572 29.8334 5.19867 31.3186 6.68165C32.8015 8.16686 33.6345 10.1799 33.6345 12.2787C33.6345 14.3776 32.8015 16.3906 31.3186 17.8758L28.9594 20.235C28.9752 18.9367 28.7694 17.6383 28.3261 16.4033L29.0702 15.6433C29.5141 15.2042 29.8665 14.6815 30.107 14.1053C30.3475 13.5291 30.4713 12.911 30.4713 12.2867C30.4713 11.6623 30.3475 11.0442 30.107 10.468C29.8665 9.89182 29.5141 9.36906 29.0702 8.92998C28.6312 8.48612 28.1084 8.13374 27.5322 7.89325C26.9561 7.65276 26.3379 7.52893 25.7136 7.52893C25.0892 7.52893 24.4711 7.65276 23.8949 7.89325C23.3187 8.13374 22.796 8.48612 22.3569 8.92998L16.7677 14.5192C16.3239 14.9582 15.9715 15.481 15.731 16.0572C15.4905 16.6333 15.3667 17.2515 15.3667 17.8758C15.3667 18.5002 15.4905 19.1183 15.731 19.6945C15.9715 20.2707 16.3239 20.7934 16.7677 21.2325M21.2327 14.5192C21.8502 13.9017 22.8636 13.9017 23.4811 14.5192C24.964 16.0044 25.797 18.0174 25.797 20.1162C25.797 22.2151 24.964 24.2281 23.4811 25.7133L17.8761 31.3183C16.3909 32.8013 14.3778 33.6342 12.279 33.6342C10.1801 33.6342 8.16711 32.8013 6.6819 31.3183C5.19891 29.8331 4.36597 27.8201 4.36597 25.7212C4.36597 23.6224 5.19891 21.6094 6.6819 20.1242L9.04106 17.765C9.02523 19.0633 9.23106 20.3617 9.6744 21.6125L8.93023 22.3567C8.48636 22.7957 8.13398 23.3185 7.89349 23.8947C7.653 24.4708 7.52917 25.089 7.52917 25.7133C7.52917 26.3377 7.653 26.9558 7.89349 27.532C8.13398 28.1082 8.48636 28.6309 8.93023 29.07C9.36931 29.5139 9.89206 29.8662 10.4682 30.1067C11.0444 30.3472 11.6625 30.471 12.2869 30.471C12.9112 30.471 13.5294 30.3472 14.1056 30.1067C14.6817 29.8662 15.2045 29.5139 15.6436 29.07L21.2327 23.4808C21.6766 23.0417 22.029 22.519 22.2695 21.9428C22.51 21.3666 22.6338 20.7485 22.6338 20.1242C22.6338 19.4998 22.51 18.8817 22.2695 18.3055C22.029 17.7293 21.6766 17.2066 21.2327 16.7675C21.079 16.6234 20.9564 16.4493 20.8726 16.2559C20.7888 16.0626 20.7455 15.8541 20.7455 15.6433C20.7455 15.4326 20.7888 15.2241 20.8726 15.0307C20.9564 14.8374 21.079 14.6632 21.2327 14.5192V14.5192Z" fill="currentColor"/>
</svg>
