<svg width="38" height="38" viewBox="0 0 38 38" fill="none" xmlns="http://www.w3.org/2000/svg">
<path d="M28.4411 11.6641L27.3363 10.5522C26.1896 9.38825 24.8162 8.4627 23.2978 7.8306C21.7794 7.1985 20.147 6.87277 18.4978 6.87277C16.8486 6.87277 15.2163 7.1985 13.6979 7.8306C12.1795 8.4627 10.8061 9.38825 9.65936 10.5522C4.78021 15.4588 4.78021 23.414 9.65936 28.3206C10.8061 29.4845 12.1795 30.4101 13.6979 31.0422C15.2163 31.6743 16.8486 32 18.4978 32C20.147 32 21.7794 31.6743 23.2978 31.0422C24.8162 30.4101 26.1896 29.4845 27.3363 28.3206C28.6908 26.9523 29.7143 25.3021 30.3309 23.4924C30.9475 21.6827 31.1414 19.76 30.8982 17.8667M28.4411 11.6641H21.8123M28.4411 11.6641L28.4386 5" stroke="currentColor" stroke-width="3.2" stroke-linecap="round" stroke-linejoin="round"/>
</svg>
